<?xml version="1.0" encoding="UTF-8"?>
<!DOCTYPE svg PUBLIC "-//W3C//DTD SVG 1.1 Tiny//EN" "http://www.w3.org/Graphics/SVG/1.1/DTD/svg11-tiny.dtd">
<svg baseProfile="tiny" version="1.1" xmlns="http://www.w3.org/2000/svg" xmlns:xlink="http://www.w3.org/1999/xlink" x="0px" y="0px" width="100%" height="100%" viewBox="0 0 57 49">
<g>
<rect fill="none" width="57" height="49"/>
<g>
<g>
<radialGradient id="SVGID_1_" cx="-367.7129" cy="255.8301" r="4.4971" gradientTransform="matrix(6.7645 0 0 -6.7645 2513.6965 1769.1666)" gradientUnits="userSpaceOnUse">
<stop offset="0" style="stop-color:#00000C"/>
<stop offset="0.26" style="stop-color:#16168B"/>
<stop offset="0.5" style="stop-color:#3838DB"/>
<stop offset="0.85" style="stop-color:#4646FC"/>
<stop offset="1" style="stop-color:#0E0EA8"/>
</radialGradient>
<path fill="url(#SVGID_1_)" d="M45.512,23.581c0,9.379-7.611,16.982-17.008,16.982c-9.392,0-17.005-7.602-17.005-16.982     c0-9.382,7.613-16.985,17.005-16.985C37.9,6.596,45.512,14.199,45.512,23.581z"/>
<radialGradient id="SVGID_2_" cx="-367.9023" cy="256.2021" r="3.9574" gradientTransform="matrix(6.7645 0 0 -6.7645 2513.6965 1769.1666)" gradientUnits="userSpaceOnUse">
<stop offset="0" style="stop-color:#0D2E0D"/>
<stop offset="0.3" style="stop-color:#1B861B"/>
<stop offset="0.75" style="stop-color:#2DF22D"/>
<stop offset="1" style="stop-color:#34D134"/>
</radialGradient>
<polygon fill="url(#SVGID_2_)" points="35.406,8.523 35.806,8.985 36.765,9.469 36.896,9.139 36.776,8.75 35.312,8.032    "/>
<radialGradient id="SVGID_3_" cx="-367.9023" cy="256.1826" r="3.7104" gradientTransform="matrix(6.7645 0 0 -6.7645 2513.6965 1769.1666)" gradientUnits="userSpaceOnUse">
<stop offset="0" style="stop-color:#0D2E0D"/>
<stop offset="0.3" style="stop-color:#1B861B"/>
<stop offset="0.75" style="stop-color:#2DF22D"/>
<stop offset="1" style="stop-color:#34D134"/>
</radialGradient>
<path fill="url(#SVGID_3_)" d="M45.441,21.841c-0.176-2.614-1.315-5.326-2.507-7.265c-1.19-1.938-1.671,1.401-1.671,1.401     l0.266-0.266l0.441,0.188l0.58,0.533l0.012-0.311l-0.457-1.289l0.553-0.132l0.115,0.754l0.389,0.889l-0.229,0.526l-0.739-0.063     l-0.441-0.284l-0.133,0.311l0.354,0.563l0.062,0.568l-0.251,0.369l-0.073,1.01l-0.621-0.041l-0.139,0.511l0.638,0.629     l-0.155,0.618l-1.188,0.19l-0.144,0.389l0.072,1.465l1.324,0.282l0.477-0.441l0.594-1.665l0.809-0.8l0.684,0.713l0.046,0.878     l0.399-0.291l0.002-1.011L43.8,19.857l0.269-0.133l0.574,0.832l0.475,0.8l-0.041,1.899l-0.716,0.27l-0.617-0.63l-1.429,0.326     l-2.016,1.51l0.031,0.848l-1.145,0.829l-0.658,1.609l0.225,0.971l-0.444,0.389l0.147,0.917l0.476,0.924l0.876,0.401l3.014-1.242     l0.074,0.832l-0.273,0.231l-0.455,1.978l-1.59,1.435l-1.16,1.76c0,0,1.546-1.363,2.643-2.745c0.985-1.244,2.096-3.382,2.738-5.35     C45.438,26.548,45.615,24.355,45.441,21.841z"/>
<radialGradient id="SVGID_4_" cx="-367.9023" cy="256.21" r="3.9468" gradientTransform="matrix(6.7645 0 0 -6.7645 2513.6965 1769.1666)" gradientUnits="userSpaceOnUse">
<stop offset="0" style="stop-color:#0D2E0D"/>
<stop offset="0.3" style="stop-color:#1B861B"/>
<stop offset="0.75" style="stop-color:#2DF22D"/>
<stop offset="1" style="stop-color:#34D134"/>
</radialGradient>
<polygon fill="url(#SVGID_4_)" points="22.915,10.876 22.425,10.385 21.313,10.474 21.179,10.696 21.491,10.963    "/>
<radialGradient id="SVGID_5_" cx="-367.9028" cy="256.1895" r="3.9685" gradientTransform="matrix(6.7645 0 0 -6.7645 2513.6965 1769.1666)" gradientUnits="userSpaceOnUse">
<stop offset="0" style="stop-color:#0D2E0D"/>
<stop offset="0.3" style="stop-color:#1B861B"/>
<stop offset="0.75" style="stop-color:#2DF22D"/>
<stop offset="1" style="stop-color:#34D134"/>
</radialGradient>
<polygon fill="url(#SVGID_5_)" points="39.717,18.607 40.116,17.797 40.369,17.955 40.369,18.85 40.992,18.834 41.349,18.212      39.657,16.433 39.41,16.745 39.701,17.367 39.211,17.59 39.189,18.45    "/>
<radialGradient id="SVGID_6_" cx="-367.9028" cy="256.1855" r="3.9721" gradientTransform="matrix(6.7645 0 0 -6.7645 2513.6965 1769.1666)" gradientUnits="userSpaceOnUse">
<stop offset="0" style="stop-color:#0D2E0D"/>
<stop offset="0.3" style="stop-color:#1B861B"/>
<stop offset="0.75" style="stop-color:#2DF22D"/>
<stop offset="1" style="stop-color:#34D134"/>
</radialGradient>
<polygon fill="url(#SVGID_6_)" points="23.251,10.322 26.969,8.517 26.225,8.28 23.925,8.67 23.894,9.139 23.144,9.081      22.448,9.438 22.645,10.118 22.423,10.385    "/>
<radialGradient id="SVGID_7_" cx="-367.9023" cy="256.1924" r="3.9603" gradientTransform="matrix(6.7645 0 0 -6.7645 2513.6965 1769.1666)" gradientUnits="userSpaceOnUse">
<stop offset="0" style="stop-color:#0D2E0D"/>
<stop offset="0.3" style="stop-color:#1B861B"/>
<stop offset="0.75" style="stop-color:#2DF22D"/>
<stop offset="1" style="stop-color:#34D134"/>
</radialGradient>
<polygon fill="url(#SVGID_7_)" points="20.6,29.018 21.123,29.398 21.837,29.22 21.8,28.93    "/>
<radialGradient id="SVGID_8_" cx="-367.9023" cy="256.1885" r="3.9692" gradientTransform="matrix(6.7645 0 0 -6.7645 2513.6965 1769.1666)" gradientUnits="userSpaceOnUse">
<stop offset="0" style="stop-color:#0D2E0D"/>
<stop offset="0.3" style="stop-color:#1B861B"/>
<stop offset="0.75" style="stop-color:#2DF22D"/>
<stop offset="1" style="stop-color:#34D134"/>
</radialGradient>
<polygon fill="url(#SVGID_8_)" points="34.032,12.172 33.252,11.731 33.844,11.078 32.305,8.574 30.703,8.116 27.632,8.695      25.177,9.816 24.869,10.474 27.066,10.975 27.33,13.228 27.812,13.318 27.404,14.67 29.1,16.521 30.324,16.405 30.616,14.831      32.421,13.616 34.074,13.289    "/>
<radialGradient id="SVGID_9_" cx="-367.9023" cy="255.9844" r="4.1639" gradientTransform="matrix(6.7645 0 0 -6.7645 2513.6965 1769.1666)" gradientUnits="userSpaceOnUse">
<stop offset="0" style="stop-color:#0D2E0D"/>
<stop offset="0.3" style="stop-color:#1B861B"/>
<stop offset="0.75" style="stop-color:#2DF22D"/>
<stop offset="1" style="stop-color:#34D134"/>
</radialGradient>
<path fill="url(#SVGID_9_)" d="M30.875,34.255l-0.724,0.186l-2.732-1.138l-3.595-1.827l-8.223-3.311l-0.879-0.91v-1.791     l1.289,0.167l6.062-3.656l1.555,0.05l1.098-0.59l-1.014-0.221l-0.14-0.753l1.931-0.449l-0.336,0.617l1.176,0.529l0.972,0.159     l-0.804-1.025l-0.589-0.477l0.813-0.277l-0.892-1.155l-0.623-0.269l-0.332-0.009l-0.426-1.46l-1.369,0.514l-0.547-1.269     l-1.425-0.266l-0.121,2.116l-0.552,0.099l-0.628,0.604l0.324,0.693l-1.155-0.193l0.271-1.031l-0.897-0.476l-0.225-0.559     l-0.455,0.157l-0.214-0.917l0.935-1.341l1.079-0.248l0.729,0.392l0.247-0.589l-0.314-0.089l1.381-1.557l0.785,0.029l0.377,0.488     l-0.718,0.24l0.285,0.273l0.868-0.112l-1.688,1.172l1.772,0.897l1.261-0.475l-0.364-0.95l0.67,0.438l0.783-0.553l-1.274-0.646     v-0.714l-0.678-0.36l-0.568-0.975l-1.287-0.043l-1.035,0.502l0.251,0.503l-0.588,0.589l-0.191-0.616l-1.294,0.141l-0.841,0.57     l0.563-0.907l0.416-0.872l-0.501-0.33l-0.252-0.894l-0.996,0.773l-0.12,1.785l-0.313,0.043l-0.306-1.143     c0,0-2.152,1.87-3.606,5.237c-1.526,3.53-1.407,6.388-1.407,6.388l1.799,3.105l-0.084,1.23l1.429,0.975l1.022,0.262l2.953,2.929     l10.255,6.894l1.479-1.04l0.592-1.058l1.153-0.478l0.269-1.214L30.875,34.255z"/>
</g>
<g>
<linearGradient id="SVGID_10_" gradientUnits="userSpaceOnUse" x1="-366.8179" y1="259.6748" x2="-366.4105" y2="258.1545" gradientTransform="matrix(6.7645 0 0 -6.7645 2513.6965 1769.1666)">
<stop offset="0" style="stop-color:#864E00"/>
<stop offset="0.45" style="stop-color:#FCA703"/>
<stop offset="0.64" style="stop-color:#FFD400"/>
<stop offset="1" style="stop-color:#AC6D00"/>
</linearGradient>
<path fill="url(#SVGID_10_)" d="M37.619,11.704l-8.402,6.693l0.562,6.147l4.925-1.745c0,0-1.401-2.344-1.423-3.693     c-0.068-2.61,4.591-5.983,5.048-5.849L37.619,11.704z"/>
<path fill="#613624" d="M27.279,27.945c3.578-0.861,5.139-1.888,7.424-4.419C33.604,23.662,29.427,24.387,27.279,27.945z"/>
<linearGradient id="SVGID_11_" gradientUnits="userSpaceOnUse" x1="-365.4063" y1="260.3232" x2="-365.1875" y2="259.7222" gradientTransform="matrix(6.7645 0 0 -6.7645 2513.6965 1769.1666)">
<stop offset="0" style="stop-color:#FFFF00"/>
<stop offset="0.35" style="stop-color:#FFFF00"/>
<stop offset="0.8" style="stop-color:#DEC500"/>
<stop offset="1" style="stop-color:#D98800"/>
</linearGradient>
<path fill="url(#SVGID_11_)" d="M35.84,11.104l9.467-0.03l4.368-1.088C47.031,8.967,41.395,6.722,35.84,11.104z"/>
<path fill="#613624" d="M49.859,10.866c-4.289-0.643-8.224,4.229-8.764,4.897C45.088,15.792,48.965,12.067,49.859,10.866z"/>
<radialGradient id="SVGID_12_" cx="-367.522" cy="260.4346" r="2.5978" gradientTransform="matrix(6.7645 0 0 -6.7645 2513.6965 1769.1666)" gradientUnits="userSpaceOnUse">
<stop offset="0" style="stop-color:#ECE617"/>
<stop offset="0.7" style="stop-color:#ECE617"/>
<stop offset="1" style="stop-color:#D98800"/>
</radialGradient>
<path fill="url(#SVGID_12_)" d="M29.778,24.545c-0.15-4.391,0.655-5.473,2.386-7.897c0.75-1.049,3.531-3.445,4.41-3.683     c1.883-0.505,3.869,2.142,3.869,2.142l4.888-4.044c-1.512-1.21-3.692-1.927-5.526-1.845c-4.049,0.182-10.912,8.839-11.9,10.954     c-1.235,2.645-1.335,7.284-1.335,7.284L29.778,24.545z"/>
<linearGradient id="SVGID_13_" gradientUnits="userSpaceOnUse" x1="-367.6567" y1="257.584" x2="-366.4244" y2="258.0325" gradientTransform="matrix(6.7645 0 0 -6.7645 2513.6965 1769.1666)">
<stop offset="0" style="stop-color:#6D2800"/>
<stop offset="0.3" style="stop-color:#E89000"/>
<stop offset="0.6" style="stop-color:#F7FC00"/>
<stop offset="0.9" style="stop-color:#EFC400"/>
<stop offset="1" style="stop-color:#832100"/>
</linearGradient>
<path fill="url(#SVGID_13_)" d="M26.569,27.457l0.71,0.488c1.686-2.473,4.342-3.759,7.424-4.42V22.8     C31.893,22.855,28.4,25.041,26.569,27.457z"/>
<linearGradient id="SVGID_14_" gradientUnits="userSpaceOnUse" x1="-365.6587" y1="259.4033" x2="-364.2097" y2="259.9307" gradientTransform="matrix(6.7645 0 0 -6.7645 2513.6965 1769.1666)">
<stop offset="0" style="stop-color:#6D2800"/>
<stop offset="0.3" style="stop-color:#E89000"/>
<stop offset="0.6" style="stop-color:#F7FC00"/>
<stop offset="0.9" style="stop-color:#EFC400"/>
<stop offset="1" style="stop-color:#832100"/>
</linearGradient>
<path fill="url(#SVGID_14_)" d="M49.676,9.986c-3.309-0.387-6.566,2.332-9.232,5.12l0.654,0.656     c2.531-2.559,5.611-5.257,8.762-4.896L49.676,9.986z"/>
</g>
<g>
<path fill="#FFFFFF" d="M26.195,38.514c-1.014-1.363-2.999-4.098-3.35-5.068c-0.353-0.969-0.22-2.688-0.177-4.761     c0.044-2.071,0-2.866-1.587-5.16c-1.585-2.29-4.098-3.084-5.067-3.393c-0.971-0.307-2.425-0.616-2.734-0.573     C12.971,19.604,12.75,20,12.75,20l4.584,6.746l-4.584,5.466l-4.319-5.775c0,0-0.397-0.132-0.53,0.043     c-0.134,0.177,0.149,7.314,2.789,9.806c1.193,1.125,2.351,1.747,4.098,1.831c0.723,0.035,1.983,0.185,2.753,1.144     c2.792,3.456,3.108,3.979,3.108,3.979l0.742,0.301l2.576,0.719l0.479-0.096l2.906,0.814l0.187,0.278l2.715,0.61l1.408-0.033     C31.66,45.832,27.21,39.88,26.195,38.514z"/>
<linearGradient id="SVGID_15_" gradientUnits="userSpaceOnUse" x1="-104.8242" y1="-96.8931" x2="-94.5499" y2="-125.1214" gradientTransform="matrix(1 0 0 -1 123.4648 -77.8281)">
<stop offset="0" style="stop-color:#E5E5E5"/>
<stop offset="0.3037" style="stop-color:#4D4D4D"/>
<stop offset="0.3933" style="stop-color:#4D4D4D"/>
<stop offset="0.5618" style="stop-color:#CCCCCC"/>
<stop offset="1" style="stop-color:#CCCCCC"/>
</linearGradient>
<path fill="url(#SVGID_15_)" d="M28.369,37.862c-2.752-3.326-3.362-4.809-3.644-5.632c-0.283-0.822,0.224-3.939-0.034-5.891     c-0.26-1.953-1.965-3.951-3.799-5.258c-1.834-1.305-4.95-1.681-5.282-1.715c-0.329-0.038-2.331,0.191-2.331,0.191     c0.309-0.044,1.764,0.267,2.734,0.573c0.969,0.309,3.482,1.104,5.067,3.394c1.587,2.293,1.633,3.086,1.587,5.16     c-0.043,2.071-0.176,3.791,0.177,4.76c0.351,0.969,2.336,3.704,3.35,5.068c1.015,1.365,5.465,7.318,5.465,7.318l1.849-1.149     C33.508,44.683,31.123,41.19,28.369,37.862z"/>
<path fill="#808080" d="M8.431,26.437l4.319,5.775l1.438-1.717c-0.819-1.087-3.359-4.451-3.454-4.534     c-0.115-0.104-0.229-0.055-0.229-0.055l-2.305,0.485C8.323,26.401,8.431,26.437,8.431,26.437z"/>
<polygon fill="#D9D9D9" points="23.947,44.246 17.642,36.236 20.163,34.756 27.999,45.152 24.442,44.169    "/>
<path fill="#FF9400" d="M21.023,35.942c0,0-0.638-0.8-1.425-0.123c-0.765,0.66-0.202,1.425-0.202,1.425l5.046,6.925l3.556,0.982     L21.023,35.942z"/>
<path fill="#B5B5B5" d="M12.883,32.83c0,0,4.484-5.376,4.693-5.664c0.588-0.807,0.116-1.293,0.116-1.293l-3.752-5.078     c0,0,2.777,0.749,3.969,1.454c1.188,0.706,2.731,2.557,3.259,4.013c0.53,1.453,0.294,3.752,0.261,4.639     c-0.101,2.771,0.769,3.879,0.769,3.879l8.054,11.095l-2.731-0.618l-7.001-9.245c0,0-0.637-0.8-1.425-0.121     c-0.765,0.658-0.202,1.423-0.202,1.423l5.053,6.935l-2.555-0.707c0,0-3.174-4.23-3.836-4.979     c-0.661-0.749-1.676-0.749-3.084-1.014c-1.411-0.267-1.63,0.089-3.616-1.722c-1.983-1.804-2.688-7.935-2.688-7.935l3.731,4.936     C11.897,32.824,12.357,33.354,12.883,32.83z"/>
</g>
</g>
</g>
</svg>
