<?xml version="1.0" encoding="UTF-8"?>
<!DOCTYPE svg PUBLIC "-//W3C//DTD SVG 1.1 Tiny//EN" "http://www.w3.org/Graphics/SVG/1.1/DTD/svg11-tiny.dtd">
<svg baseProfile="tiny" version="1.1" xmlns="http://www.w3.org/2000/svg" xmlns:xlink="http://www.w3.org/1999/xlink" x="0px" y="0px" width="100%" height="100%" viewBox="0 0 57 49">
<g>
<rect fill="none" width="57" height="49"/>
<g>
<g>
<g>
<radialGradient id="SVGID_1_" cx="-356.0454" cy="281.7109" r="4.5044" gradientTransform="matrix(6.7645 0 0 -6.7645 2433.925 1947.1653)" gradientUnits="userSpaceOnUse">
<stop offset="0" style="stop-color:#00000C"/>
<stop offset="0.26" style="stop-color:#16168B"/>
<stop offset="0.5" style="stop-color:#3838DB"/>
<stop offset="0.85" style="stop-color:#4646FC"/>
<stop offset="1" style="stop-color:#0E0EA8"/>
</radialGradient>
<path fill="url(#SVGID_1_)" d="M44.694,26.479c0,9.396-7.624,17.012-17.035,17.012c-9.407,0-17.031-7.615-17.031-17.012      c0-9.395,7.624-17.011,17.031-17.011C37.07,9.468,44.694,17.084,44.694,26.479z"/>
<radialGradient id="SVGID_2_" cx="-356.2363" cy="282.0635" r="3.6988" gradientTransform="matrix(6.7645 0 0 -6.7645 2433.925 1947.1653)" gradientUnits="userSpaceOnUse">
<stop offset="0" style="stop-color:#0D2E0D"/>
<stop offset="0.3" style="stop-color:#1B861B"/>
<stop offset="0.75" style="stop-color:#2DF22D"/>
<stop offset="1" style="stop-color:#34D134"/>
</radialGradient>
<path fill="url(#SVGID_2_)" d="M44.624,24.736c-0.176-2.616-1.318-5.334-2.511-7.274c-0.365-0.718-1.619-0.258-1.647-0.167      c-0.3,1.249-0.051,1.683-0.051,1.683l0.45-0.2l1,0.65l-0.833-2.133l0.804,0.292l0.115,0.755l0.389,0.891l-0.229,0.526      l-0.742-0.063l-0.441-0.284l-0.134,0.313l0.355,0.563l0.062,0.572l-0.252,0.367l-0.072,1.012l-0.624-0.041l-0.139,0.511      l0.641,0.631l-0.158,0.619l1.135,0.221l0.813-0.803l0.684,0.715l0.446,0.587l0.001-1.012l-0.709-0.915l0.271-0.133l0.574,0.834      l0.476,0.802l-1.376,1.542l-5,6.1l-0.445,0.39l0.149,0.918l0.477,0.927l0.877,0.402l3.018-1.245l0.076,0.834l-0.275,0.23      l-0.456,1.982l-1.593,1.436l-1.16,1.763c0,0,1.548-1.365,2.646-2.747c0.986-1.248,2.099-3.39,2.742-5.359      C44.62,29.451,44.797,27.257,44.624,24.736z"/>
<radialGradient id="SVGID_3_" cx="-356.2358" cy="282.0557" r="3.9913" gradientTransform="matrix(6.7645 0 0 -6.7645 2433.925 1947.1653)" gradientUnits="userSpaceOnUse">
<stop offset="0" style="stop-color:#0D2E0D"/>
<stop offset="0.3" style="stop-color:#1B861B"/>
<stop offset="0.75" style="stop-color:#2DF22D"/>
<stop offset="1" style="stop-color:#34D134"/>
</radialGradient>
<polygon fill="url(#SVGID_3_)" points="22.062,13.753 21.57,13.264 20.456,13.352 20.324,13.576 20.635,13.843     "/>
<radialGradient id="SVGID_4_" cx="-356.2358" cy="282.0762" r="3.9711" gradientTransform="matrix(6.7645 0 0 -6.7645 2433.925 1947.1653)" gradientUnits="userSpaceOnUse">
<stop offset="0" style="stop-color:#0D2E0D"/>
<stop offset="0.3" style="stop-color:#1B861B"/>
<stop offset="0.75" style="stop-color:#2DF22D"/>
<stop offset="1" style="stop-color:#34D134"/>
</radialGradient>
<polygon fill="url(#SVGID_4_)" points="38.891,21.499 39.29,20.688 39.543,20.845 39.543,21.741 40.165,21.727 40.525,21.104       38.83,19.32 38.582,19.632 38.875,20.256 38.384,20.479 38.361,21.342     "/>
<radialGradient id="SVGID_5_" cx="-356.2354" cy="282.0732" r="3.973" gradientTransform="matrix(6.7645 0 0 -6.7645 2433.925 1947.1653)" gradientUnits="userSpaceOnUse">
<stop offset="0" style="stop-color:#0D2E0D"/>
<stop offset="0.3" style="stop-color:#1B861B"/>
<stop offset="0.75" style="stop-color:#2DF22D"/>
<stop offset="1" style="stop-color:#34D134"/>
</radialGradient>
<polygon fill="url(#SVGID_5_)" points="22.397,13.2 26.121,11.393 25.375,11.155 23.072,11.546 23.043,12.015 22.29,11.957       21.592,12.314 21.792,12.996 21.568,13.264     "/>
<radialGradient id="SVGID_6_" cx="-356.2354" cy="282.0742" r="3.9721" gradientTransform="matrix(6.7645 0 0 -6.7645 2433.925 1947.1653)" gradientUnits="userSpaceOnUse">
<stop offset="0" style="stop-color:#0D2E0D"/>
<stop offset="0.3" style="stop-color:#1B861B"/>
<stop offset="0.75" style="stop-color:#2DF22D"/>
<stop offset="1" style="stop-color:#34D134"/>
</radialGradient>
<polygon fill="url(#SVGID_6_)" points="33.197,15.055 33.006,13.959 31.465,11.448 29.861,10.99 26.785,11.57 24.327,12.694       24.02,13.354 26.22,13.854 26.484,16.11 26.965,16.202 26.557,17.556 28.254,19.409 29.481,19.294 29.774,17.716 31.583,16.499       33.237,16.172     "/>
<radialGradient id="SVGID_7_" cx="-356.5044" cy="281.6729" r="4.3224" gradientTransform="matrix(6.7645 0 0 -6.7645 2433.925 1947.1653)" gradientUnits="userSpaceOnUse">
<stop offset="0" style="stop-color:#0D2E0D"/>
<stop offset="0.3" style="stop-color:#1B861B"/>
<stop offset="0.75" style="stop-color:#2DF22D"/>
<stop offset="1" style="stop-color:#34D134"/>
</radialGradient>
<path fill="url(#SVGID_7_)" d="M27.853,36.87l-0.999-1.212l-6.06-1.426L18.907,35.1l-1.213-0.285l-0.731-2.485l-1.063-0.436      l-0.087-1.114l-1,0.3l-0.85-0.851l0.05-1.8l1.2,0.2l0.9-0.4l1,2.051l0.5-0.55l-0.05-1.501l0.95-0.499l0.9-1.201l1.805-1.657      l1.558,0.051l1.098-0.593l-1.015-0.22l-0.14-0.754l1.934-0.45l-0.337,0.617l1.178,0.53l0.972,0.16l-0.806-1.025l-0.589-0.479      l0.815-0.277l-0.895-1.158l-0.624-0.269l-0.332-0.01l-0.426-1.46l-1.372,0.514l-0.546-1.271l-1.427-0.266l-0.121,2.118      l-0.555,0.102l-0.629,0.604l0.323,0.693l-1.155-0.193l0.271-1.034L17.5,20.326l-0.226-0.559l-0.455,0.156l-0.214-0.918      l0.936-1.342l1.08-0.249l0.731,0.392l0.247-0.59l-0.316-0.088l1.385-1.559l0.787,0.028l0.377,0.489l-0.72,0.239l0.287,0.274      l0.869-0.111l-1.691,1.174l1.776,0.898l1.262-0.477l-0.364-0.951l0.669,0.439l0.786-0.556l-1.277-0.646v-0.714l-0.68-0.362      l-0.569-0.975l-1.288-0.044l-1.038,0.504l0.252,0.504l-0.588,0.588l-0.192-0.617l-1.296,0.142l-0.843,0.571l0.566-0.909      l0.415-0.873l-0.503-0.33l-0.252-0.896l-0.998,0.774l-0.12,1.788l-0.314,0.043l-0.307-1.144c0,0-2.156,1.872-3.611,5.245      c-1.529,3.534-1.409,6.397-1.409,6.397l1.8,3.11l-0.091,1.253l2.2,1.25l1.1,1.364l0.754,0.935l1.147,1.422l1.593,0.223      l-0.842,1.196l-0.013,1.156l1.954,1.648l1.075,0.882l-0.143,1.746l1.877,0.595l5.18-2.233l0.499-1.176L27.853,36.87z"/>
</g>
<polygon fill="#59B80A" points="18.96,31.025 17.846,31.212 18.305,31.421 18.811,31.505 19.318,31.864 20.174,32.021      20.345,31.764 19.629,31.429    "/>
</g>
<g>
<g>
<g>
<linearGradient id="SVGID_8_" gradientUnits="userSpaceOnUse" x1="-207.2441" y1="424.6357" x2="-206.1006" y2="422.6346" gradientTransform="matrix(5.9528 0 0 -5.9528 1270.4589 2527.6038)">
<stop offset="0" style="stop-color:#626262"/>
<stop offset="0.5082" style="stop-color:#FFFFFF"/>
<stop offset="1" style="stop-color:#616161"/>
</linearGradient>
<path fill="url(#SVGID_8_)" d="M39.864,11.146l5.107-2.08c0,0,0.053-4.903-0.414-5.682c-0.477-0.797-3.911-1.238-5.542-1.326       c-2.544-0.137-5.861,0.487-6.261,0.783L39.864,11.146z"/>
<linearGradient id="SVGID_9_" gradientUnits="userSpaceOnUse" x1="-206.6963" y1="423.0176" x2="-206.2246" y2="422.1921" gradientTransform="matrix(5.9528 0 0 -5.9528 1270.4589 2527.6038)">
<stop offset="0" style="stop-color:#818181"/>
<stop offset="0.7472" style="stop-color:#F4F4F4"/>
<stop offset="0.9945" style="stop-color:#333333"/>
<stop offset="1" style="stop-color:#333333"/>
</linearGradient>
<path fill="url(#SVGID_9_)" d="M49.298,9.372c-1.061-0.232-0.979-0.116-4.276-0.436l-4.957,1.73l-3.153,9.971       c0.681-0.271,3.1-1.451,3.369-1.647c0.269-0.195,8.472-7.811,8.472-7.811S50.338,9.596,49.298,9.372z M37.35,20.446       c-0.099,0.036-0.201,0.066-0.298,0.066C37.085,20.511,37.23,20.495,37.35,20.446z"/>
<path fill="#FFFFFF" d="M40.662,10.301c0,0,3.46,0.628,4.61,0.828c1.15,0.198,0.274,1.115,0.274,1.115l-7.933,8.134       c0,0-0.409,0.278-0.713,0.278s-0.543-0.449-0.543-0.449s-7.096-10.618-7.576-11.36C28.299,8.104,29.35,8.09,29.35,8.09       l3.347,0.637c0,0,0.063-4.447,0.063-5.945c0-0.03,5.79-0.096,7.499,1.843C41.327,5.796,40.662,10.301,40.662,10.301z"/>
<linearGradient id="SVGID_10_" gradientUnits="userSpaceOnUse" x1="-207.6563" y1="423.1523" x2="-206.6072" y2="422.2198" gradientTransform="matrix(5.9528 0 0 -5.9528 1270.4589 2527.6038)">
<stop offset="0" style="stop-color:#626262"/>
<stop offset="1" style="stop-color:#000000"/>
</linearGradient>
<path fill="url(#SVGID_10_)" d="M30.722,9.959l5.886,8.464c0,0,0.235,0.638,0.761,0.127c0.522-0.513,5.864-6.277,5.864-6.277       s0.532-0.458-0.308-0.62c-0.969-0.19-3.263-0.639-3.263-0.639s0.041-4.441,0-4.827c-0.043-0.383-0.225-0.878-0.906-1.397       c-0.678-0.516-3.997-1.271-4.844-0.785c0,0.137-0.004,1.477-0.004,1.477v4.48c0,0-2.799-0.664-2.792-0.662       C29.706,8.882,30.722,9.959,30.722,9.959z"/>
</g>
</g>
</g>
<g>
<linearGradient id="SVGID_11_" gradientUnits="userSpaceOnUse" x1="-355.7402" y1="283.6572" x2="-355.2567" y2="281.8528" gradientTransform="matrix(6.7645 0 0 -6.7645 2433.925 1947.1653)">
<stop offset="0" style="stop-color:#864E00"/>
<stop offset="0.45" style="stop-color:#FCA703"/>
<stop offset="0.64" style="stop-color:#FFD400"/>
<stop offset="1" style="stop-color:#AC6D00"/>
</linearGradient>
<path fill="url(#SVGID_11_)" d="M33.768,27.313l-9.973,7.942l0.667,7.297l5.845-2.072c0,0-1.664-2.781-1.689-4.382     c-0.081-3.099,5.449-7.101,5.993-6.942L33.768,27.313z"/>
<path fill="#613624" d="M21.498,46.584c4.244-1.021,6.097-2.239,8.81-5.241C29.002,41.502,24.045,42.361,21.498,46.584z"/>
<linearGradient id="SVGID_12_" gradientUnits="userSpaceOnUse" x1="-354.0649" y1="284.4268" x2="-353.8051" y2="283.7128" gradientTransform="matrix(6.7645 0 0 -6.7645 2433.925 1947.1653)">
<stop offset="0" style="stop-color:#FFFF00"/>
<stop offset="0.35" style="stop-color:#FFFF00"/>
<stop offset="0.8" style="stop-color:#DEC500"/>
<stop offset="1" style="stop-color:#D98800"/>
</linearGradient>
<path fill="url(#SVGID_12_)" d="M31.657,26.601l11.234-0.036l5.184-1.291C44.937,24.063,38.248,21.4,31.657,26.601z"/>
<path fill="#613624" d="M48.295,26.318c-5.09-0.763-9.761,5.019-10.401,5.812C42.631,32.161,47.233,27.742,48.295,26.318z"/>
<radialGradient id="SVGID_13_" cx="-356.5757" cy="284.5576" r="3.083" gradientTransform="matrix(6.7645 0 0 -6.7645 2433.925 1947.1653)" gradientUnits="userSpaceOnUse">
<stop offset="0" style="stop-color:#ECE617"/>
<stop offset="0.7" style="stop-color:#ECE617"/>
<stop offset="1" style="stop-color:#D98800"/>
</radialGradient>
<path fill="url(#SVGID_13_)" d="M24.463,42.552c-0.177-5.211,0.778-6.496,2.832-9.374c0.889-1.244,4.189-4.088,5.235-4.368     c2.233-0.601,4.591,2.54,4.591,2.54l5.799-4.798c-1.792-1.438-4.381-2.288-6.557-2.188c-4.806,0.214-12.949,10.487-14.124,12.998     c-1.467,3.139-1.583,8.646-1.583,8.646L24.463,42.552z"/>
<linearGradient id="SVGID_14_" gradientUnits="userSpaceOnUse" x1="-356.7349" y1="281.1748" x2="-355.2725" y2="281.7071" gradientTransform="matrix(6.7645 0 0 -6.7645 2433.925 1947.1653)">
<stop offset="0" style="stop-color:#6D2800"/>
<stop offset="0.3" style="stop-color:#E89000"/>
<stop offset="0.6" style="stop-color:#F7FC00"/>
<stop offset="0.9" style="stop-color:#EFC400"/>
<stop offset="1" style="stop-color:#832100"/>
</linearGradient>
<path fill="url(#SVGID_14_)" d="M20.656,46.007l0.842,0.577c2.002-2.931,5.152-4.46,8.81-5.241v-0.863     C26.971,40.547,22.828,43.137,20.656,46.007z"/>
<linearGradient id="SVGID_15_" gradientUnits="userSpaceOnUse" x1="-354.3643" y1="283.335" x2="-352.6455" y2="283.9605" gradientTransform="matrix(6.7645 0 0 -6.7645 2433.925 1947.1653)">
<stop offset="0" style="stop-color:#6D2800"/>
<stop offset="0.3" style="stop-color:#E89000"/>
<stop offset="0.6" style="stop-color:#F7FC00"/>
<stop offset="0.9" style="stop-color:#EFC400"/>
<stop offset="1" style="stop-color:#832100"/>
</linearGradient>
<path fill="url(#SVGID_15_)" d="M48.075,25.273c-3.924-0.458-7.793,2.768-10.955,6.076l0.776,0.778     c3.005-3.036,6.659-6.237,10.399-5.81L48.075,25.273z"/>
</g>
</g>
</g>
</svg>
